<svg width="275" height="74" viewBox="0 0 275 74" fill="none" xmlns="http://www.w3.org/2000/svg">
<path d="M5.11566 47.7705V33.2182C5.11566 20.4794 4.93772 11.8099 4.58185 7.2098L0.311388 6.90018C0.103796 5.98605 0 4.90974 0 3.67125C0 2.43276 0.029656 1.53337 0.088968 0.973102C6.58363 0.619247 11.21 0.294879 13.968 0L14.4128 0.530783C13.4045 8.96434 12.9004 18.0171 12.9004 27.6892V45.205C12.9004 53.9335 13.2266 60.9516 13.879 66.2594L17.8381 66.569C17.9864 67.6896 18.0605 68.6627 18.0605 69.4883C18.0605 70.2845 17.9419 71.2871 17.7046 72.4961C15.2135 72.4371 12.3369 72.4077 9.07473 72.4077C5.81257 72.4077 2.9656 72.4371 0.533808 72.4961C0.326216 71.4345 0.22242 70.5057 0.22242 69.7095C0.22242 68.8838 0.29656 67.837 0.44484 66.569L4.18149 66.2594C4.80427 59.5951 5.11566 53.4322 5.11566 47.7705ZM28.0694 66.569L31.806 66.2594C32.4585 59.3003 32.7847 52.9456 32.7847 47.1955C32.7847 41.4158 32.503 35.415 31.9395 29.1931L27.9804 28.8834C27.7728 27.6744 27.669 26.5244 27.669 25.4334C27.669 24.3423 27.6987 23.5019 27.758 22.9121C31.8802 22.7942 36.2989 22.4846 41.0142 21.9833L41.548 22.514C40.8956 26.6718 40.5694 33.6752 40.5694 43.5242C40.5694 53.3732 40.8956 60.9516 41.548 66.2594L45.4626 66.569C45.6109 67.6896 45.6851 68.6627 45.6851 69.4883C45.6851 70.2845 45.5813 71.2871 45.3737 72.4961C42.8826 72.4371 40.0059 72.4077 36.7438 72.4077C33.452 72.4077 30.605 72.4371 28.2028 72.4961C27.9656 71.4345 27.847 70.3435 27.847 69.223C27.847 68.0729 27.9211 67.1883 28.0694 66.569ZM42.6157 7.3425C42.6157 11.7067 40.3321 13.8888 35.7651 13.8888C32.2064 13.8888 30.427 12.0901 30.427 8.49253C30.427 4.03985 32.7106 1.81351 37.2776 1.81351C40.8363 1.81351 42.6157 3.65651 42.6157 7.3425ZM97.4644 35.2528L97.3754 45.5589C97.3754 53.0488 97.8055 59.949 98.6655 66.2594L102.402 66.569C102.521 67.6896 102.58 68.6627 102.58 69.4883C102.58 70.2845 102.476 71.2871 102.269 72.4961C99.7776 72.4371 96.8416 72.4077 93.4609 72.4077C90.0801 72.4077 87.1886 72.4371 84.7865 72.4961C84.5492 71.4345 84.4306 70.5057 84.4306 69.7095C84.4306 68.8838 84.5047 67.837 84.653 66.569L88.3897 66.2594C88.9531 58.5925 89.2349 51.7956 89.2349 45.8685C89.2349 39.9119 88.7307 35.5182 87.7224 32.6874C86.6845 29.8565 84.5937 28.4411 81.4502 28.4411C77.4763 28.4411 73.2058 30.7117 68.6388 35.2528V45.205C68.6388 53.9335 68.965 60.9516 69.6174 66.2594L73.5765 66.569C73.6951 67.6896 73.7544 68.6627 73.7544 69.4883C73.7544 70.2845 73.6507 71.2871 73.4431 72.4961C70.952 72.4371 68.0753 72.4077 64.8132 72.4077C61.5214 72.4077 58.6744 72.4371 56.2722 72.4961C56.0646 71.4345 55.9609 70.5057 55.9609 69.7095C55.9609 68.8838 56.0202 67.837 56.1388 66.569L59.8754 66.2594C60.5279 59.5951 60.8541 53.4322 60.8541 47.7705V33.2182C60.8541 20.4794 60.6762 11.8099 60.3203 7.2098L56.0498 6.90018C55.8422 5.98605 55.7384 4.90974 55.7384 3.67125C55.7384 2.43276 55.7681 1.53337 55.8274 0.973102C62.3221 0.619247 66.9484 0.294879 69.7064 0L70.1513 0.530783C69.1429 8.96434 68.6388 18.4447 68.6388 28.9719C70.774 26.8488 73.3393 25.0942 76.3345 23.7083C79.3298 22.3519 82.1768 21.6736 84.8754 21.6736C93.2681 21.6736 97.4644 26.2 97.4644 35.2528ZM115.08 55.2014C115.08 55.2014 115.154 47.3134 115.302 31.5374C115.302 30.4758 115.273 29.6649 115.214 29.1046C112.218 29.1046 110.083 29.1341 108.808 29.1931C108.363 28.0725 108.141 26.952 108.141 25.8314C108.141 24.7404 108.215 23.9147 108.363 23.3545H114.858L114.324 15.4812C116.103 14.9209 117.972 14.6408 119.929 14.6408C121.886 14.6408 123.517 14.7882 124.822 15.0831L123.843 23.266C127.758 23.1775 131.702 22.9564 135.676 22.6025C136.121 23.5166 136.343 24.534 136.343 25.6545C136.343 26.7456 136.195 28.0725 135.899 29.6354C133.259 29.4879 129.093 29.3405 123.399 29.1931C123.28 30.6085 123.221 32.7021 123.221 35.474V57.0149C123.221 58.8432 123.31 60.3471 123.488 61.5266C123.665 62.6766 124.125 63.7382 124.867 64.7113C125.608 65.6549 126.69 66.1267 128.114 66.1267C131.257 66.1267 134.253 65.0357 137.1 62.8536C138.582 64.9767 139.324 67.837 139.324 71.4345C135.409 73.1448 132.014 74 129.137 74C126.26 74 123.962 73.6314 122.242 72.8942C120.522 72.1275 119.202 71.2429 118.283 70.2403C117.364 69.2082 116.652 67.7633 116.148 65.9056C115.436 63.3106 115.08 59.7426 115.08 55.2014ZM161.299 21.6736C166.281 21.6736 170.255 22.8384 173.221 25.168C176.186 27.4975 177.669 30.52 177.669 34.2355C177.669 37.951 175.993 39.8087 172.642 39.8087C170.655 39.8087 169.098 39.1895 167.972 37.951C166.874 36.7125 166.326 35.2381 166.326 33.5278C166.326 31.847 166.607 30.4316 167.171 29.2815C165.48 27.9546 163.464 27.2911 161.121 27.2911C158.749 27.2911 156.806 27.8514 155.294 28.9719C153.751 30.1219 152.98 31.788 152.98 33.9701C152.98 36.1522 153.855 38.0689 155.605 39.7203C157.355 41.3421 159.475 42.6691 161.966 43.7011C164.457 44.7037 166.948 45.7653 169.439 46.8858C171.931 47.9769 174.051 49.525 175.801 51.5302C177.521 53.5649 178.381 56.0566 178.381 59.0054C178.381 63.6055 176.839 67.262 173.754 69.9749C170.67 72.6583 166.459 74 161.121 74C155.783 74 151.423 72.8647 148.043 70.5941C144.662 68.3236 142.972 65.3453 142.972 61.6593V61.2612C142.972 57.4278 144.632 55.5111 147.954 55.5111C149.97 55.5111 151.527 56.1303 152.625 57.3688C153.722 58.6073 154.27 60.0375 154.27 61.6593C154.27 63.3106 154.093 64.5934 153.737 65.5075C155.16 66.4216 157.414 66.8787 160.498 66.8787C163.612 66.8787 165.97 66.3479 167.571 65.2863C169.173 64.2247 169.973 62.7504 169.973 60.8631C169.973 59.0054 169.098 57.3246 167.349 55.8207C165.599 54.3463 163.479 53.093 160.988 52.061C158.496 51.0289 156.005 49.9378 153.514 48.7878C151.023 47.6083 148.903 45.9275 147.153 43.7454C145.433 41.5338 144.573 38.9093 144.573 35.8721C144.573 31.4784 146.115 28.0135 149.199 25.4776C152.284 22.9416 156.317 21.6736 161.299 21.6736ZM191.637 58.6958L191.726 47.3282C191.726 41.0472 191.444 35.0022 190.881 29.1931L186.922 28.8834C186.714 27.7334 186.61 26.5686 186.61 25.3891C186.61 24.1801 186.655 23.3545 186.744 22.9121C190.362 22.8532 194.766 22.5435 199.956 21.9833L200.489 22.514C199.867 26.6718 199.555 34.1323 199.555 44.8954V49.8936C199.555 55.8502 200.104 60.0817 201.201 62.5882C202.298 65.0946 204.167 66.3479 206.806 66.3479C210.513 66.3479 214.531 64.1953 218.861 59.89C219.009 58.2387 219.084 55.0835 219.084 50.4244V47.3282C219.084 41.0472 218.802 35.0022 218.238 29.1931L214.279 28.8834C214.072 27.6744 213.968 26.4802 213.968 25.3007C213.968 24.1506 213.998 23.3545 214.057 22.9121C217.675 22.8532 222.094 22.5435 227.313 21.9833L227.847 22.514C227.195 26.6718 226.868 34.1323 226.868 44.8954V48.3013C226.868 54.1104 227.195 59.7721 227.847 65.2863L231.762 65.5075C231.91 67.0703 231.984 68.2204 231.984 68.9576C231.984 69.6948 231.88 70.5941 231.673 71.6557C228.885 71.8032 225 72.157 220.018 72.7173C219.454 71.4493 219.039 69.68 218.772 67.4094C213.434 71.8031 208.511 74 204.004 74C199.525 74 196.352 72.7615 194.484 70.2845C192.586 67.8075 191.637 63.9446 191.637 58.6958ZM257.918 21.6736C262.9 21.6736 266.874 22.8384 269.84 25.168C272.805 27.4975 274.288 30.52 274.288 34.2355C274.288 37.951 272.613 39.8087 269.262 39.8087C267.275 39.8087 265.718 39.1895 264.591 37.951C263.493 36.7125 262.945 35.2381 262.945 33.5278C262.945 31.847 263.227 30.4316 263.79 29.2815C262.1 27.9546 260.083 27.2911 257.74 27.2911C255.368 27.2911 253.425 27.8514 251.913 28.9719C250.371 30.1219 249.6 31.788 249.6 33.9701C249.6 36.1522 250.475 38.0689 252.224 39.7203C253.974 41.3421 256.094 42.6691 258.585 43.7011C261.077 44.7037 263.568 45.7653 266.059 46.8858C268.55 47.9769 270.67 49.525 272.42 51.5302C274.14 53.5649 275 56.0566 275 59.0054C275 63.6055 273.458 67.262 270.374 69.9749C267.289 72.6583 263.078 74 257.74 74C252.402 74 248.043 72.8647 244.662 70.5941C241.281 68.3236 239.591 65.3453 239.591 61.6593V61.2612C239.591 57.4278 241.251 55.5111 244.573 55.5111C246.59 55.5111 248.146 56.1303 249.244 57.3688C250.341 58.6073 250.89 60.0375 250.89 61.6593C250.89 63.3106 250.712 64.5934 250.356 65.5075C251.779 66.4216 254.033 66.8787 257.117 66.8787C260.231 66.8787 262.589 66.3479 264.19 65.2863C265.792 64.2247 266.593 62.7504 266.593 60.8631C266.593 59.0054 265.718 57.3246 263.968 55.8207C262.218 54.3463 260.098 53.093 257.607 52.061C255.116 51.0289 252.625 49.9378 250.133 48.7878C247.642 47.6083 245.522 45.9275 243.772 43.7454C242.052 41.5338 241.192 38.9093 241.192 35.8721C241.192 31.4784 242.734 28.0135 245.818 25.4776C248.903 22.9416 252.936 21.6736 257.918 21.6736Z" fill="white"/>
</svg>
